<svg xmlns="http://www.w3.org/2000/svg" fill="none" viewBox="0 0 33 32" height="32" width="33">
<path fill="white" d="M29.0772 9L25.8699 20.535C25.753 20.9553 25.5019 21.3259 25.1546 21.5904C24.8074 21.8549 24.3831 21.9987 23.9464 22H11.5775C11.1399 21.9998 10.7145 21.8565 10.3663 21.5919C10.018 21.3273 9.76609 20.9561 9.64905 20.535L6.44043 9H29.0772Z" opacity="0.2"></path>
<path fill="white" d="M13.0595 27C13.0595 27.3956 12.942 27.7822 12.722 28.1111C12.502 28.44 12.1893 28.6964 11.8234 28.8478C11.4576 28.9991 11.055 29.0387 10.6666 28.9616C10.2782 28.8844 9.92141 28.6939 9.64139 28.4142C9.36137 28.1345 9.17067 27.7781 9.09341 27.3902C9.01615 27.0022 9.05581 26.6001 9.20735 26.2346C9.3589 25.8692 9.61553 25.5568 9.9448 25.3371C10.2741 25.1173 10.6612 25 11.0572 25C11.5882 25 12.0975 25.2107 12.473 25.5858C12.8485 25.9609 13.0595 26.4696 13.0595 27ZM24.0719 25C23.6759 25 23.2888 25.1173 22.9595 25.3371C22.6302 25.5568 22.3736 25.8692 22.222 26.2346C22.0705 26.6001 22.0308 27.0022 22.1081 27.3902C22.1854 27.7781 22.3761 28.1345 22.6561 28.4142C22.9361 28.6939 23.2929 28.8844 23.6813 28.9616C24.0697 29.0387 24.4723 28.9991 24.8381 28.8478C25.204 28.6964 25.5167 28.44 25.7367 28.1111C25.9567 27.7822 26.0741 27.3956 26.0741 27C26.0741 26.4696 25.8632 25.9609 25.4877 25.5858C25.1122 25.2107 24.6029 25 24.0719 25ZM30.0424 9.2675L26.8338 20.8025C26.6573 21.4326 26.28 21.9881 25.759 22.3846C25.238 22.7812 24.6018 22.9973 23.9467 23H11.5778C10.9208 22.9997 10.282 22.7848 9.75873 22.388C9.23546 21.9913 8.85645 21.4345 8.67951 20.8025L4.28956 5H2.04703C1.78151 5 1.52687 4.89464 1.33912 4.70711C1.15137 4.51957 1.0459 4.26522 1.0459 4C1.0459 3.73478 1.15137 3.48043 1.33912 3.29289C1.52687 3.10536 1.78151 3 2.04703 3H5.05042C5.26929 2.99996 5.48215 3.07156 5.6564 3.20386C5.83066 3.33615 5.95671 3.52184 6.01526 3.7325L7.2016 8H29.0775C29.2319 7.99997 29.3841 8.03558 29.5224 8.10406C29.6607 8.17254 29.7812 8.27202 29.8747 8.39474C29.9681 8.51746 30.0318 8.66009 30.0609 8.81149C30.09 8.96289 30.0837 9.11895 30.0424 9.2675ZM27.7598 10H7.75847L10.6129 20.2675C10.6715 20.4782 10.7975 20.6638 10.9718 20.7961C11.1461 20.9284 11.3589 21 11.5778 21H23.9467C24.1656 21 24.3785 20.9284 24.5527 20.7961C24.727 20.6638 24.853 20.4782 24.9116 20.2675L27.7598 10Z"></path>
</svg>
