<svg xmlns="http://www.w3.org/2000/svg" fill="none" viewBox="0 0 33 32" height="32" width="33">
<path fill="white" d="M22.4032 12C22.4032 13.1867 22.0509 14.3467 21.3909 15.3334C20.7309 16.3201 19.7927 17.0892 18.6951 17.5433C17.5975 17.9974 16.3898 18.1162 15.2246 17.8847C14.0594 17.6532 12.9891 17.0818 12.149 16.2426C11.3089 15.4035 10.7368 14.3344 10.5051 13.1705C10.2733 12.0067 10.3923 10.8003 10.8469 9.7039C11.3015 8.60754 12.0714 7.67047 13.0592 7.01118C14.0471 6.35189 15.2084 6 16.3964 6C17.9895 6 19.5174 6.63214 20.6439 7.75736C21.7704 8.88258 22.4032 10.4087 22.4032 12Z" opacity="0.2"></path>
<path fill="white" d="M27.4086 12.0007C27.4097 10.1469 26.9418 8.32296 26.0483 6.6982C25.1548 5.07344 23.8648 3.70058 22.2979 2.70713C20.7311 1.71369 18.9383 1.13188 17.0861 1.01575C15.2339 0.899619 13.3824 1.25293 11.7035 2.04288C10.0246 2.83282 8.57274 4.03377 7.48286 5.53417C6.39298 7.03458 5.70039 8.78578 5.46941 10.6251C5.23844 12.4644 5.47658 14.3323 6.16171 16.0551C6.84684 17.7779 7.95673 19.2998 9.38831 20.4794V30.0007C9.38819 30.1712 9.43173 30.339 9.51481 30.488C9.59788 30.6369 9.71773 30.7622 9.86295 30.8519C10.0082 30.9416 10.1739 30.9927 10.3445 31.0004C10.5151 31.008 10.6848 30.972 10.8374 30.8957L16.3962 28.1257L21.9562 30.9019C22.0956 30.9685 22.2485 31.0023 22.403 31.0007C22.6685 31.0007 22.9232 30.8953 23.1109 30.7078C23.2987 30.5202 23.4041 30.2659 23.4041 30.0007V20.4794C24.6567 19.449 25.6654 18.1543 26.3577 16.6884C27.0501 15.2224 27.409 13.6216 27.4086 12.0007ZM7.38605 12.0007C7.38605 10.2206 7.91449 8.48058 8.90454 7.00054C9.89459 5.5205 11.3018 4.36695 12.9482 3.68576C14.5946 3.00457 16.4062 2.82634 18.154 3.17361C19.9018 3.52087 21.5073 4.37804 22.7674 5.63671C24.0275 6.89538 24.8856 8.49903 25.2333 10.2449C25.5809 11.9907 25.4025 13.8003 24.7205 15.4448C24.0386 17.0894 22.8837 18.495 21.402 19.4839C19.9203 20.4728 18.1783 21.0007 16.3962 21.0007C14.0074 20.998 11.7172 20.049 10.028 18.3617C8.33883 16.6745 7.3887 14.3868 7.38605 12.0007ZM21.4019 28.3832L16.843 26.1069C16.7039 26.0374 16.5505 26.0012 16.395 26.0012C16.2394 26.0012 16.086 26.0374 15.947 26.1069L11.3906 28.3832V21.7969C12.9403 22.5881 14.6558 23.0007 16.3962 23.0007C18.1366 23.0007 19.8522 22.5881 21.4019 21.7969V28.3832ZM16.3962 19.0007C17.7823 19.0007 19.1372 18.5901 20.2896 17.821C21.442 17.0518 22.3403 15.9585 22.8707 14.6795C23.4011 13.4004 23.5399 11.9929 23.2695 10.635C22.9991 9.27717 22.3316 8.02989 21.3516 7.05093C20.3715 6.07196 19.1228 5.40527 17.7634 5.13518C16.404 4.86508 14.9949 5.0037 13.7144 5.53352C12.4339 6.06333 11.3394 6.96054 10.5694 8.11168C9.79932 9.26283 9.38831 10.6162 9.38831 12.0007C9.3903 13.8566 10.1293 15.6359 11.4431 16.9482C12.7569 18.2606 14.5382 18.9987 16.3962 19.0007ZM16.3962 7.00067C17.3862 7.00067 18.354 7.29392 19.1772 7.84332C20.0004 8.39273 20.642 9.17362 21.0208 10.0873C21.3997 11.0009 21.4988 12.0062 21.3057 12.9761C21.1125 13.946 20.6358 14.8369 19.9357 15.5362C19.2357 16.2355 18.3438 16.7117 17.3728 16.9046C16.4018 17.0975 15.3953 16.9985 14.4806 16.6201C13.566 16.2416 12.7842 15.6008 12.2342 14.7785C11.6841 13.9563 11.3906 12.9896 11.3906 12.0007C11.3906 10.6746 11.9179 9.40282 12.8567 8.46514C13.7954 7.52746 15.0686 7.00067 16.3962 7.00067Z"></path>
</svg>
