<svg xmlns="http://www.w3.org/2000/svg" fill="none" viewBox="0 0 33 32" height="32" width="33">
<path fill="white" d="M21.736 18C21.736 18.9889 21.4424 19.9556 20.8924 20.7779C20.3424 21.6001 19.5606 22.241 18.6459 22.6194C17.7313 22.9978 16.7248 23.0969 15.7538 22.9039C14.7828 22.711 13.8909 22.2348 13.1908 21.5355C12.4908 20.8363 12.014 19.9454 11.8209 18.9755C11.6277 18.0055 11.7269 17.0002 12.1057 16.0866C12.4846 15.173 13.1262 14.3921 13.9494 13.8427C14.7725 13.2932 15.7403 13 16.7304 13C18.0579 13 19.3311 13.5268 20.2699 14.4645C21.2086 15.4021 21.736 16.6739 21.736 18ZM8.72132 7C7.9293 7 7.15507 7.2346 6.49653 7.67412C5.83799 8.11365 5.32472 8.73836 5.02162 9.46927C4.71853 10.2002 4.63923 11.0044 4.79374 11.7804C4.94826 12.5563 5.32965 13.269 5.88969 13.8284C6.44974 14.3878 7.16327 14.7688 7.94008 14.9231C8.71688 15.0775 9.52205 14.9983 10.2538 14.6955C10.9855 14.3928 11.6109 13.8801 12.051 13.2223C12.491 12.5645 12.7258 11.7911 12.7258 11C12.7258 9.93913 12.3039 8.92172 11.5529 8.17157C10.8019 7.42143 9.78338 7 8.72132 7ZM24.7394 7C23.9474 7 23.1731 7.2346 22.5146 7.67412C21.8561 8.11365 21.3428 8.73836 21.0397 9.46927C20.7366 10.2002 20.6573 11.0044 20.8118 11.7804C20.9663 12.5563 21.3477 13.269 21.9078 13.8284C22.4678 14.3878 23.1814 14.7688 23.9582 14.9231C24.735 15.0775 25.5401 14.9983 26.2719 14.6955C27.0036 14.3928 27.629 13.8801 28.069 13.2223C28.5091 12.5645 28.7439 11.7911 28.7439 11C28.7439 9.93913 28.322 8.92172 27.571 8.17157C26.82 7.42143 25.8015 7 24.7394 7Z" opacity="0.2"></path>
<path fill="white" d="M31.3467 18.8009C31.2415 18.8797 31.1219 18.937 30.9945 18.9696C30.8671 19.0022 30.7346 19.0094 30.6045 18.9908C30.4743 18.9723 30.3491 18.9283 30.236 18.8613C30.1228 18.7944 30.024 18.7059 29.9451 18.6009C29.3417 17.7907 28.5563 17.1334 27.6521 16.6818C26.7479 16.2302 25.7502 15.997 24.7393 16.0009C24.4737 16.0009 24.2191 15.8955 24.0314 15.708C23.8436 15.5204 23.7381 15.2661 23.7381 15.0009C23.7381 14.7357 23.8436 14.4813 24.0314 14.2938C24.2191 14.1062 24.4737 14.0009 24.7393 14.0009C25.301 14.0008 25.8514 13.8434 26.3281 13.5466C26.8047 13.2497 27.1885 12.8252 27.4358 12.3214C27.683 11.8176 27.7839 11.2546 27.7269 10.6965C27.6699 10.1383 27.4573 9.60722 27.1133 9.16365C26.7693 8.72009 26.3077 8.38178 25.7808 8.18714C25.254 7.99251 24.683 7.94937 24.1329 8.0626C23.5827 8.17584 23.0754 8.44092 22.6685 8.82774C22.2616 9.21455 21.9714 9.7076 21.831 10.2509C21.7981 10.3781 21.7405 10.4976 21.6614 10.6026C21.5823 10.7075 21.4832 10.7959 21.3699 10.8627C21.2566 10.9294 21.1313 10.9732 21.001 10.9916C20.8708 11.0099 20.7382 11.0025 20.6108 10.9696C20.4835 10.9368 20.3638 10.8792 20.2588 10.8002C20.1537 10.7212 20.0652 10.6223 19.9984 10.5091C19.9316 10.3959 19.8877 10.2707 19.8693 10.1406C19.851 10.0105 19.8584 9.87809 19.8913 9.75087C20.0862 8.99752 20.4545 8.3 20.9667 7.71381C21.479 7.12763 22.1212 6.66896 22.8422 6.37431C23.5632 6.07966 24.343 5.95715 25.1197 6.01654C25.8965 6.07592 26.6486 6.31556 27.3163 6.71639C27.9839 7.11721 28.5487 7.66816 28.9658 8.3254C29.3828 8.98263 29.6404 9.72801 29.7183 10.5022C29.7961 11.2764 29.692 12.0581 29.4142 12.7851C29.1364 13.512 28.6926 14.1642 28.1181 14.6896C29.4794 15.2784 30.6628 16.2126 31.5507 17.3996C31.6296 17.5049 31.6869 17.6248 31.7193 17.7523C31.7518 17.8797 31.7587 18.0124 31.7398 18.1425C31.7208 18.2727 31.6763 18.3978 31.6089 18.5108C31.5414 18.6238 31.4524 18.7223 31.3467 18.8009ZM24.6041 26.5009C24.674 26.6147 24.7204 26.7414 24.7404 26.8734C24.7605 27.0054 24.754 27.1401 24.7211 27.2696C24.6882 27.399 24.6297 27.5205 24.5491 27.627C24.4684 27.7335 24.3672 27.8228 24.2514 27.8896C24.1357 27.9564 24.0077 27.9993 23.875 28.0159C23.7424 28.0325 23.6077 28.0224 23.4791 27.9862C23.3504 27.9499 23.2303 27.8883 23.1258 27.805C23.0214 27.7216 22.9347 27.6182 22.8709 27.5009C22.2402 26.4345 21.342 25.5508 20.2651 24.9369C19.1881 24.323 17.9696 24.0001 16.7296 24.0001C15.4896 24.0001 14.2711 24.323 13.1941 24.9369C12.1172 25.5508 11.219 26.4345 10.5883 27.5009C10.5257 27.6204 10.4396 27.726 10.335 27.8114C10.2305 27.8968 10.1098 27.9602 9.98014 27.9977C9.85046 28.0353 9.71452 28.0463 9.58048 28.0301C9.44645 28.0138 9.31709 27.9706 9.20019 27.9031C9.08329 27.8356 8.98127 27.7452 8.90027 27.6373C8.81926 27.5294 8.76094 27.4063 8.72882 27.2753C8.69669 27.1443 8.69143 27.0081 8.71334 26.875C8.73526 26.742 8.7839 26.6147 8.85633 26.5009C9.82693 24.8351 11.3068 23.5242 13.0786 22.7609C12.0816 21.9984 11.3489 20.9431 10.9835 19.7432C10.618 18.5433 10.6382 17.2591 11.0412 16.0713C11.4442 14.8834 12.2097 13.8515 13.2301 13.1207C14.2505 12.3899 15.4746 11.9969 16.7302 11.9969C17.9858 11.9969 19.2099 12.3899 20.2303 13.1207C21.2508 13.8515 22.0163 14.8834 22.4192 16.0713C22.8222 17.2591 22.8424 18.5433 22.477 19.7432C22.1115 20.9431 21.3788 21.9984 20.3818 22.7609C22.1536 23.5242 23.6335 24.8351 24.6041 26.5009ZM16.7302 22.0009C17.5222 22.0009 18.2965 21.7663 18.955 21.3268C19.6136 20.8872 20.1268 20.2625 20.4299 19.5316C20.733 18.8007 20.8123 17.9964 20.6578 17.2205C20.5033 16.4446 20.1219 15.7319 19.5618 15.1724C19.0018 14.613 18.2883 14.2321 17.5115 14.0777C16.7347 13.9234 15.9295 14.0026 15.1978 14.3054C14.466 14.6081 13.8406 15.1208 13.4006 15.7786C12.9606 16.4364 12.7257 17.2097 12.7257 18.0009C12.7257 19.0617 13.1476 20.0792 13.8986 20.8293C14.6496 21.5794 15.6682 22.0009 16.7302 22.0009ZM9.72231 15.0009C9.72231 14.7357 9.61683 14.4813 9.42908 14.2938C9.24134 14.1062 8.9867 14.0009 8.72118 14.0009C8.15946 14.0008 7.609 13.8434 7.13235 13.5466C6.65569 13.2497 6.27194 12.8252 6.02468 12.3214C5.77741 11.8176 5.67655 11.2546 5.73356 10.6965C5.79056 10.1383 6.00313 9.60722 6.34713 9.16365C6.69114 8.72009 7.15278 8.38178 7.67963 8.18714C8.20647 7.99251 8.77741 7.94937 9.32757 8.0626C9.87774 8.17584 10.3851 8.44092 10.792 8.82774C11.1989 9.21455 11.489 9.7076 11.6295 10.2509C11.6958 10.5078 11.8617 10.7279 12.0905 10.8627C12.3193 10.9975 12.5924 11.0359 12.8496 10.9696C13.1068 10.9033 13.3271 10.7377 13.4621 10.5091C13.597 10.2805 13.6355 10.0078 13.5692 9.75087C13.3742 8.99752 13.006 8.3 12.4937 7.71381C11.9814 7.12763 11.3392 6.66896 10.6183 6.37431C9.89729 6.07966 9.11741 5.95715 8.3407 6.01654C7.56398 6.07592 6.81186 6.31556 6.14418 6.71639C5.4765 7.11721 4.91169 7.66816 4.49469 8.3254C4.07768 8.98263 3.82 9.72801 3.74215 10.5022C3.66429 11.2764 3.7684 12.0581 4.04621 12.7851C4.32401 13.512 4.76784 14.1642 5.34237 14.6896C3.98244 15.2789 2.80039 16.2132 1.9135 17.3996C1.75402 17.6118 1.68546 17.8786 1.72289 18.1412C1.76032 18.4039 1.90068 18.641 2.1131 18.8003C2.32551 18.9595 2.59257 19.028 2.85554 18.9906C3.1185 18.9533 3.35583 18.813 3.5153 18.6009C4.11872 17.7907 4.90414 17.1334 5.80834 16.6818C6.71254 16.2302 7.71026 15.997 8.72118 16.0009C8.9867 16.0009 9.24134 15.8955 9.42908 15.708C9.61683 15.5204 9.72231 15.2661 9.72231 15.0009Z"></path>
</svg>
